<svg width="26" height="24" viewBox="0 0 26 24" fill="none" xmlns="http://www.w3.org/2000/svg">
<path d="M19.6667 17.3334L25 12M25 12L19.6667 6.66671M25 12H6.33333M14.3333 17.3334V18.6667C14.3333 19.7276 13.9119 20.745 13.1618 21.4951C12.4116 22.2453 11.3942 22.6667 10.3333 22.6667H5C3.93913 22.6667 2.92172 22.2453 2.17157 21.4951C1.42143 20.745 1 19.7276 1 18.6667V5.33337C1 4.27251 1.42143 3.25509 2.17157 2.50495C2.92172 1.7548 3.93913 1.33337 5 1.33337H10.3333C11.3942 1.33337 12.4116 1.7548 13.1618 2.50495C13.9119 3.25509 14.3333 4.27251 14.3333 5.33337V6.66671" stroke="white" stroke-width="2" stroke-linecap="round" stroke-linejoin="round"/>
</svg>
