<svg width="24" height="24" viewBox="0 0 24 24" fill="none" xmlns="http://www.w3.org/2000/svg">
<g clip-path="url(#clip0_312_470)">
<path d="M20.37 17.4L18.375 14.13V9.49497C18.4459 8.26257 18.1667 7.03526 17.5694 5.95492C16.9722 4.87458 16.0814 3.98533 15 3.38997C15.0148 3.20026 15.0148 3.00968 15 2.81997C14.9884 2.43777 14.9015 2.0616 14.7444 1.71298C14.5873 1.36436 14.363 1.05013 14.0844 0.788229C13.8058 0.526332 13.4783 0.321914 13.1207 0.186659C12.763 0.0514048 12.3822 -0.012034 12 -3.06536e-05C11.6178 -0.012034 11.237 0.0514048 10.8793 0.186659C10.5217 0.321914 10.1942 0.526332 9.91556 0.788229C9.63695 1.05013 9.41268 1.36436 9.25558 1.71298C9.09849 2.0616 9.01163 2.43777 9 2.81997C8.97791 3.00933 8.97791 3.20061 9 3.38997C7.91862 3.98533 7.02782 4.87458 6.43058 5.95492C5.83334 7.03526 5.55405 8.26257 5.625 9.49497V14.13L3.63 17.4C3.45743 17.6834 3.36318 18.0076 3.35688 18.3394C3.35057 18.6712 3.43244 18.9987 3.59412 19.2885C3.7558 19.5783 3.9915 19.82 4.27714 19.9889C4.56279 20.1578 4.88815 20.2479 5.22 20.25H7.875C7.94439 21.2871 8.41278 22.257 9.18188 22.9561C9.95098 23.6553 10.961 24.0294 12 24C13.039 24.0294 14.049 23.6553 14.8181 22.9561C15.5872 22.257 16.0556 21.2871 16.125 20.25H18.78C19.1118 20.2479 19.4372 20.1578 19.7228 19.9889C20.0085 19.82 20.2442 19.5783 20.4059 19.2885C20.5676 18.9987 20.6494 18.6712 20.6431 18.3394C20.6368 18.0076 20.5426 17.6834 20.37 17.4ZM10.875 2.81997C10.9017 2.54661 11.0344 2.29459 11.2447 2.11793C11.455 1.94127 11.7261 1.85405 12 1.87497C12.2739 1.85405 12.545 1.94127 12.7553 2.11793C12.9656 2.29459 13.0983 2.54661 13.125 2.81997C12.7504 2.79651 12.3746 2.79651 12 2.81997C11.6254 2.79611 11.2496 2.79611 10.875 2.81997ZM12 22.125C11.458 22.1522 10.9256 21.9745 10.5087 21.6271C10.0918 21.2796 9.82092 20.788 9.75 20.25H14.25C14.1791 20.788 13.9082 21.2796 13.4913 21.6271C13.0744 21.9745 12.542 22.1522 12 22.125ZM5.22 18.375L7.23 15.12L7.5 14.655V9.49497C7.49639 8.37162 7.80822 7.26982 8.4 6.31497C8.80833 5.75535 9.35434 5.31075 9.98509 5.02428C10.6158 4.73782 11.3099 4.61921 12 4.67997C12.6901 4.61921 13.3842 4.73782 14.0149 5.02428C14.6457 5.31075 15.1917 5.75535 15.6 6.31497C16.1918 7.26982 16.5036 8.37162 16.5 9.49497V14.655L16.77 15.12L18.78 18.375H5.22Z" fill="white"/>
</g>
<defs>
<clipPath id="clip0_312_470">
<rect width="24" height="24" fill="white"/>
</clipPath>
</defs>
</svg>
